<svg width="986" height="188" xmlns="http://www.w3.org/2000/svg" xmlns:xlink="http://www.w3.org/1999/xlink" overflow="hidden"><defs><clipPath id="clip0"><rect x="35" y="42" width="986" height="188"/></clipPath></defs><g clip-path="url(#clip0)" transform="translate(-35 -42)"><path d="M84.84 50.566C84.84 43.8734 83.8936 37.7893 82.0683 32.4488 80.1755 27.1082 77.539 22.5789 74.1589 18.8608 70.7113 15.1428 66.6552 12.3035 61.8554 10.343 57.0557 8.3826 51.7828 7.36857 46.0367 7.36857 40.2905 7.36857 35.0176 8.3826 30.2855 10.343 25.4858 12.3035 21.4297 15.1428 17.982 18.8608 14.5343 22.5789 11.8979 27.1082 10.005 32.4488 8.11219 37.7893 7.16577 43.8058 7.16577 50.566 7.16577 57.3261 8.11219 63.3427 10.005 68.6832 11.8979 74.0237 14.5343 78.553 17.982 82.2711 21.4297 85.9892 25.5534 88.8285 30.2855 90.7889 35.0852 92.7494 40.3581 93.6958 46.0367 93.6958 51.8504 93.6958 57.1233 92.7494 61.8554 90.7889 66.6552 88.8285 70.7113 85.9892 74.1589 82.2711 77.6066 78.553 80.2431 74.0237 82.0683 68.6832 83.8936 63.3427 84.84 57.3261 84.84 50.566ZM92.0733 50.566C92.0733 58.0022 90.9241 64.7623 88.7609 70.7789 86.53 76.863 83.3528 82.0007 79.3643 86.3272 75.3082 90.5861 70.4408 93.8986 64.7623 96.2646 59.0838 98.6307 52.8644 99.7799 46.0367 99.7799 39.2089 99.7799 32.9896 98.6307 27.311 96.2646 21.6325 93.8986 16.8328 90.6537 12.7767 86.3272 8.7206 82.0007 5.54333 76.863 3.31248 70.7789 1.08163 64.6947 0 58.0022 0 50.566 0 43.1974 1.14923 36.4373 3.31248 30.3531 5.54333 24.269 8.7206 19.1312 12.7767 14.8723 16.8328 10.6134 21.7001 7.23337 27.311 4.93492 32.8544 2.50126 39.1413 1.35203 45.9691 1.35203 52.7968 1.35203 59.0838 2.50126 64.6947 4.86731 70.3732 7.23337 75.2406 10.5458 79.2967 14.8047 83.3528 19.1312 86.4624 24.269 88.6933 30.3531 90.9241 36.4373 92.0733 43.1298 92.0733 50.566" fill="#004F7D" fill-rule="evenodd" transform="matrix(1.00346 0 0 1 35.3469 42)"/><path d="M181.037 82.4739C181.51 82.4739 181.916 82.6091 182.186 82.9471L184.958 85.854C182.93 88.0173 180.699 89.9101 178.333 91.6001 175.967 93.2902 173.33 94.7774 170.559 95.9266 167.72 97.1435 164.61 98.0223 161.23 98.6983 157.85 99.3743 154.132 99.7123 150.076 99.7123 143.315 99.7123 137.096 98.5631 131.485 96.1971 125.874 93.831 121.007 90.5861 116.951 86.2596 112.895 82.0007 109.785 76.7954 107.554 70.7113 105.323 64.6271 104.174 57.867 104.174 50.4308 104.174 43.1298 105.323 36.5049 107.622 30.4207 109.92 24.4042 113.165 19.1988 117.289 14.8723 121.412 10.5458 126.415 7.16577 132.229 4.79971 138.042 2.43366 144.465 1.21683 151.428 1.21683 158.12 1.21683 164.001 2.23085 169.139 4.2589 174.277 6.28695 179.009 9.19382 183.2 12.9119L181.037 15.954C180.631 16.4948 180.091 16.7652 179.279 16.7652 178.739 16.7652 177.86 16.292 176.575 15.278 175.358 14.2639 173.601 13.1823 171.37 11.9655 169.139 10.7487 166.435 9.66703 163.123 8.653 159.81 7.63898 155.889 7.16577 151.292 7.16577 145.411 7.16577 140.003 8.17979 135.068 10.1402 130.133 12.1007 125.942 15.0076 122.426 18.7256 118.911 22.4437 116.14 26.973 114.179 32.3136 112.219 37.6541 111.205 43.6706 111.205 50.3632 111.205 57.1909 112.219 63.2075 114.179 68.548 116.207 73.8885 118.911 78.4178 122.426 82.1359 125.942 85.854 130.065 88.6933 134.798 90.6537 139.53 92.6142 144.735 93.6282 150.211 93.6282 153.726 93.6282 156.836 93.4254 159.54 92.9522 162.244 92.479 164.813 91.8029 167.111 90.9241 169.41 90.0453 171.573 88.8961 173.533 87.6116 175.494 86.3272 177.454 84.7724 179.415 83.0147 179.617 82.8119 179.888 82.6767 180.091 82.5415 180.564 82.5415 180.767 82.4739 181.037 82.4739" fill="#004F7D" fill-rule="evenodd" transform="matrix(1.00346 0 0 1 35.3469 42)"/><path d="M261.145 92.7494 261.01 98.4955 203.075 98.4955 203.075 2.63646 261.01 2.63646 261.01 8.3826 210.106 8.3826 210.106 47.1183 252.492 47.1183 252.492 52.7292 210.106 52.7292 210.106 92.6818 261.145 92.6818" fill="#004F7D" fill-rule="evenodd" transform="matrix(1.00346 0 0 1 35.3469 42)"/><path d="M340.104 63.6807 320.431 15.2104C319.755 13.6555 319.079 11.7627 318.471 9.53182 318.201 10.6134 317.93 11.6275 317.592 12.6415 317.254 13.5879 316.916 14.5343 316.578 15.3456L296.974 63.6807 340.104 63.6807ZM361.466 98.4955 356.058 98.4955C355.449 98.4955 354.908 98.3603 354.503 98.0223 354.097 97.6843 353.759 97.2787 353.556 96.6703L342.267 68.8184 294.878 68.8184 283.521 96.6703C283.318 97.1435 283.048 97.6167 282.575 97.9547 282.101 98.2927 281.561 98.4955 280.952 98.4955L275.612 98.4955 315.091 2.63646 321.986 2.63646 361.466 98.4955" fill="#004F7D" fill-rule="evenodd" transform="matrix(1.00346 0 0 1 35.3469 42)"/><path d="M451.105 2.63646 451.105 98.4955 447.793 98.4955C447.184 98.4955 446.711 98.4279 446.306 98.1575 445.9 97.9547 445.562 97.6167 445.156 97.1435L382.557 13.9259C382.693 15.278 382.76 16.5624 382.76 17.7792L382.76 98.4955 376.608 98.4955 376.608 2.63646 380.056 2.63646C380.732 2.63646 381.205 2.70406 381.543 2.90687 381.881 3.04207 382.287 3.38008 382.693 3.92089L445.224 86.9356C445.089 85.5836 445.021 84.2992 445.021 83.0823L445.021 2.63646 451.105 2.63646" fill="#004F7D" fill-rule="evenodd" transform="matrix(1.00346 0 0 1 35.3469 42)"/><path d="M538.582 16.4272C538.176 17.1032 537.703 17.644 537.23 17.982 536.757 18.32 536.148 18.5228 535.472 18.5228 534.729 18.5228 533.782 18.1172 532.768 17.3736 531.754 16.63 530.47 15.7512 528.847 14.8047 527.292 13.8583 525.399 13.0471 523.236 12.2359 521.005 11.4923 518.369 11.0867 515.259 11.0867 512.285 11.0867 509.716 11.4923 507.485 12.3035 505.254 13.1147 503.361 14.1963 501.807 15.5484 500.319 16.9004 499.17 18.5228 498.359 20.3481 497.615 22.1733 497.21 24.2014 497.21 26.297 497.21 29.0011 497.886 31.2995 499.238 33.0572 500.59 34.8148 502.347 36.3696 504.511 37.6541 506.674 38.9385 509.175 40.0201 511.947 40.9666 514.718 41.913 517.558 42.8594 520.532 43.8734 523.439 44.8875 526.278 45.9691 529.118 47.2535 531.889 48.4703 534.391 50.0928 536.554 51.9856 538.785 53.8785 540.542 56.2445 541.894 59.0162 543.246 61.7878 543.922 65.1679 543.922 69.224 543.922 73.4829 543.179 77.4714 541.759 81.2571 540.339 84.9752 538.176 88.2877 535.404 90.9917 532.633 93.7634 529.185 95.9266 525.129 97.5491 521.073 99.1039 516.476 99.9151 511.271 99.9151 504.916 99.9151 499.17 98.7659 494.032 96.4675 488.895 94.169 484.433 91.0593 480.782 87.206L484.568 80.9191C484.906 80.4459 485.379 79.9727 485.92 79.6347 486.461 79.2967 487.002 79.1614 487.678 79.1614 488.286 79.1614 488.962 79.4319 489.706 79.9051 490.449 80.3783 491.328 80.9867 492.275 81.7303 493.221 82.4739 494.303 83.2851 495.52 84.0964 496.736 84.9752 498.156 85.7864 499.711 86.4624 501.266 87.206 503.023 87.8144 505.051 88.2877 507.012 88.7609 509.31 88.9637 511.744 88.9637 514.854 88.9637 517.693 88.5581 520.127 87.6792 522.56 86.8004 524.656 85.5836 526.346 84.0288 528.036 82.4739 529.388 80.5811 530.267 78.4178 531.146 76.2546 531.619 73.8209 531.619 71.1169 531.619 68.1424 530.943 65.7763 529.591 63.8835 528.239 61.9906 526.481 60.4358 524.318 59.1514 522.155 57.867 519.653 56.7853 516.814 55.9065 513.975 55.0277 511.136 54.0813 508.229 53.2024 505.322 52.256 502.483 51.1744 499.643 49.9576 496.804 48.7407 494.37 47.1183 492.139 45.2255 489.976 43.265 488.219 40.8314 486.867 37.9245 485.515 35.0176 484.839 31.3671 484.839 27.0406 484.839 23.593 485.515 20.2805 486.867 17.0356 488.219 13.7907 490.179 10.9515 492.68 8.4502 495.249 5.94894 498.359 3.98849 502.145 2.50126 505.863 1.01402 510.189 0.270406 514.989 0.270406 520.465 0.270406 525.399 1.14923 529.861 2.83927 534.323 4.52931 538.244 7.03056 541.624 10.343L538.582 16.4272" fill="#004F7D" fill-rule="evenodd" transform="matrix(1.00346 0 0 1 35.3469 42)"/><path d="M729.421 88.1525C733.477 88.1525 737.128 87.4764 740.305 86.1244 743.482 84.7724 746.186 82.8795 748.417 80.4459 750.648 78.0122 752.338 75.1054 753.487 71.6577 754.636 68.2776 755.245 64.5595 755.245 60.4358L755.245 1.35203 768.495 1.35203 768.495 60.4358C768.495 66.0467 767.616 71.2521 765.791 76.0518 763.965 80.8515 761.397 84.9752 758.017 88.4905 754.636 92.0058 750.58 94.7774 745.713 96.7379 740.846 98.7659 735.438 99.7123 729.353 99.7123 723.337 99.7123 717.861 98.6983 713.061 96.7379 708.194 94.7774 704.07 92.0058 700.69 88.4905 697.31 84.9752 694.674 80.8515 692.916 76.0518 691.091 71.2521 690.212 66.0467 690.212 60.4358L690.212 1.35203 703.462 1.35203 703.462 60.3682C703.462 64.4243 704.07 68.1424 705.22 71.5901 706.369 74.9702 708.059 77.877 710.29 80.3783 712.521 82.8119 715.225 84.7048 718.47 86.1244 721.714 87.4088 725.365 88.1525 729.421 88.1525" fill="#004F7D" fill-rule="evenodd" transform="matrix(1.00346 0 0 1 35.3469 42)"/><path d="M872.06 1.35203 872.06 98.4955 865.435 98.4955C864.354 98.4955 863.543 98.2927 862.799 97.9547 862.123 97.6167 861.379 97.0083 860.703 96.1294L803.918 22.9169C803.986 24.0662 804.053 25.1478 804.121 26.2294 804.188 27.311 804.188 28.3251 804.188 29.2715L804.188 98.4955 792.561 98.4955 792.561 1.35203 799.389 1.35203C799.997 1.35203 800.47 1.35203 800.876 1.41963 801.282 1.48723 801.687 1.62244 801.958 1.75764 802.296 1.89284 802.566 2.16325 802.904 2.43366 803.242 2.70406 803.58 3.10967 803.918 3.51528L860.703 76.6602C860.636 75.511 860.501 74.3617 860.433 73.2801 860.365 72.1309 860.365 71.1169 860.365 70.1028L860.365 1.35203 872.06 1.35203" fill="#004F7D" fill-rule="evenodd" transform="matrix(1.00346 0 0 1 35.3469 42)"/><path d="M968.393 49.9576C968.393 44.0086 967.581 38.6681 965.959 33.936 964.337 29.2039 962.038 25.283 958.996 22.0381 956.021 18.7932 952.371 16.292 948.112 14.6019 943.853 12.9119 939.054 12.0331 933.781 12.0331L910.593 12.0331 910.593 87.882 933.781 87.882C939.054 87.882 943.786 87.0032 948.112 85.3132 952.371 83.5555 956.021 81.1219 958.996 77.877 961.97 74.6321 964.337 70.7113 965.959 65.9791 967.581 61.247 968.393 55.9065 968.393 49.9576ZM981.913 49.9576C981.913 57.2585 980.764 63.8835 978.465 69.8324 976.167 75.7814 972.854 80.9191 968.663 85.178 964.472 89.4369 959.334 92.6818 953.453 95.0478 947.504 97.3463 941.014 98.5631 933.848 98.5631L897.411 98.5631 897.411 1.35203 933.848 1.35203C941.014 1.35203 947.571 2.50126 953.453 4.86731 959.402 7.16577 964.472 10.4782 968.663 14.7371 972.854 18.996 976.167 24.1338 978.465 30.0827 980.764 36.0316 981.913 42.6566 981.913 49.9576" fill="#004F7D" fill-rule="evenodd" transform="matrix(1.00346 0 0 1 35.3469 42)"/><path d="M264.322 161.771C266.35 161.771 268.175 161.5 269.73 160.959 271.285 160.419 272.637 159.675 273.651 158.729 274.733 157.782 275.544 156.633 276.085 155.281 276.626 153.929 276.896 152.509 276.896 150.887 276.896 147.574 275.882 145.005 273.786 143.18 271.691 141.355 268.513 140.408 264.322 140.408L255.804 140.408 255.804 161.703 264.322 161.703 264.322 161.771ZM264.322 134.933C267.635 134.933 270.609 135.338 273.043 136.082 275.544 136.826 277.572 137.907 279.195 139.327 280.817 140.746 282.034 142.437 282.845 144.397 283.656 146.357 284.062 148.588 284.062 151.022 284.062 153.456 283.656 155.619 282.777 157.647 281.899 159.675 280.682 161.365 278.992 162.785 277.302 164.204 275.274 165.353 272.84 166.165 270.406 166.976 267.567 167.382 264.39 167.382L255.872 167.382 255.872 186.716 248.706 186.716 248.706 135 264.322 135" fill="#458AC9" fill-rule="evenodd" transform="matrix(1.00346 0 0 1 35.3469 42)"/><path d="M336.047 167.449 327.8 146.425C327.53 145.817 327.259 145.073 326.989 144.262 326.718 143.451 326.448 142.572 326.245 141.625 325.704 143.586 325.231 145.208 324.69 146.493L316.443 167.517 336.047 167.517 336.047 167.449ZM350.852 186.648 345.444 186.648C344.768 186.648 344.295 186.513 343.889 186.175 343.484 185.837 343.213 185.499 343.01 184.958L338.076 172.452 314.483 172.452 309.548 184.958C309.412 185.364 309.142 185.769 308.736 186.107 308.331 186.445 307.79 186.58 307.182 186.58L301.706 186.58 322.73 134.865 329.896 134.865 350.852 186.648" fill="#458AC9" fill-rule="evenodd" transform="matrix(1.00346 0 0 1 35.3469 42)"/><path d="M393.306 160.013C395.402 160.013 397.227 159.743 398.782 159.269 400.337 158.796 401.689 158.12 402.77 157.174 403.852 156.295 404.663 155.213 405.204 153.929 405.745 152.712 406.015 151.292 406.015 149.805 406.015 146.695 405.001 144.397 402.905 142.842 400.81 141.287 397.7 140.476 393.576 140.476L385.735 140.476 385.735 160.013 393.306 160.013 393.306 160.013ZM417.778 186.648 411.423 186.648C410.139 186.648 409.125 186.175 408.516 185.161L394.793 166.706C394.32 166.097 393.914 165.691 393.441 165.489 392.968 165.218 392.224 165.083 391.21 165.083L385.802 165.083 385.802 186.648 378.704 186.648 378.704 134.933 393.644 134.933C397.024 134.933 399.863 135.271 402.297 135.947 404.731 136.623 406.759 137.569 408.314 138.854 409.936 140.138 411.085 141.625 411.829 143.383 412.572 145.141 412.978 147.169 412.978 149.332 412.978 151.157 412.64 152.847 412.099 154.47 411.491 156.092 410.612 157.512 409.53 158.729 408.381 160.013 407.029 161.027 405.407 161.973 403.784 162.852 401.959 163.528 399.931 164.001 400.877 164.475 401.621 165.218 402.297 166.232L417.778 186.648" fill="#458AC9" fill-rule="evenodd" transform="matrix(1.00346 0 0 1 35.3469 42)"/><path d="M479.633 140.814 462.936 140.814 462.936 186.648 455.973 186.648 455.973 140.814 439.207 140.814 439.207 134.933 479.633 134.933 479.633 140.814" fill="#458AC9" fill-rule="evenodd" transform="matrix(1.00346 0 0 1 35.3469 42)"/><path d="M547.776 134.933 547.776 186.648 544.328 186.648C543.787 186.648 543.314 186.58 542.908 186.378 542.57 186.175 542.165 185.837 541.827 185.431L512.082 146.425C512.15 147.033 512.15 147.642 512.217 148.183 512.217 148.723 512.285 149.264 512.285 149.805L512.285 186.648 506.201 186.648 506.201 134.933 509.784 134.933C510.121 134.933 510.324 134.933 510.595 135 510.798 135.068 511 135.068 511.203 135.203 511.338 135.271 511.541 135.406 511.676 135.541 511.812 135.676 512.014 135.879 512.217 136.15L541.962 175.088C541.894 174.48 541.894 173.871 541.827 173.263 541.827 172.654 541.759 172.114 541.759 171.573L541.759 134.933 547.776 134.933" fill="#458AC9" fill-rule="evenodd" transform="matrix(1.00346 0 0 1 35.3469 42)"/><path d="M609.631 180.969 609.563 186.648 578.061 186.648 578.061 134.933 609.563 134.933 609.563 140.611 584.956 140.611 584.956 157.782 604.899 157.782 604.899 163.258 584.956 163.258 584.956 180.902 609.631 180.902" fill="#458AC9" fill-rule="evenodd" transform="matrix(1.00346 0 0 1 35.3469 42)"/><path d="M653.369 160.013C655.397 160.013 657.223 159.743 658.845 159.269 660.467 158.796 661.752 158.12 662.833 157.174 663.915 156.295 664.726 155.213 665.267 153.929 665.808 152.712 666.078 151.292 666.078 149.805 666.078 146.695 665.064 144.397 662.969 142.842 660.873 141.287 657.763 140.476 653.64 140.476L645.798 140.476 645.798 160.013 653.369 160.013 653.369 160.013ZM677.773 186.648 671.419 186.648C670.134 186.648 669.12 186.175 668.512 185.161L654.789 166.706C654.316 166.097 653.91 165.691 653.437 165.489 652.964 165.218 652.22 165.083 651.206 165.083L645.798 165.083 645.798 186.648 638.632 186.648 638.632 134.933 653.572 134.933C656.885 134.933 659.791 135.271 662.225 135.947 664.659 136.623 666.687 137.569 668.242 138.854 669.864 140.138 671.013 141.625 671.757 143.383 672.5 145.141 672.906 147.169 672.906 149.332 672.906 151.157 672.636 152.847 672.027 154.47 671.419 156.092 670.54 157.512 669.458 158.729 668.309 160.013 666.957 161.027 665.335 161.973 663.712 162.852 661.887 163.528 659.859 164.001 660.805 164.475 661.549 165.218 662.225 166.232L677.773 186.648" fill="#458AC9" fill-rule="evenodd" transform="matrix(1.00346 0 0 1 35.3469 42)"/><path d="M730.435 143.653C730.232 143.991 729.962 144.262 729.691 144.465 729.421 144.667 729.151 144.735 728.745 144.735 728.339 144.735 727.866 144.532 727.258 144.127 726.717 143.721 725.973 143.248 725.162 142.775 724.283 142.301 723.269 141.828 722.12 141.423 720.903 141.017 719.484 140.814 717.794 140.814 716.239 140.814 714.819 141.017 713.602 141.423 712.385 141.828 711.371 142.437 710.56 143.18 709.749 143.924 709.141 144.735 708.735 145.749 708.329 146.695 708.127 147.777 708.127 148.926 708.127 150.346 708.465 151.563 709.208 152.509 709.952 153.456 710.898 154.267 712.047 154.943 713.264 155.619 714.616 156.227 716.104 156.7 717.591 157.241 719.146 157.714 720.7 158.255 722.255 158.796 723.81 159.405 725.297 160.081 726.785 160.757 728.137 161.568 729.353 162.582 730.57 163.596 731.517 164.813 732.193 166.3 732.936 167.787 733.274 169.545 733.274 171.708 733.274 174.006 732.869 176.102 732.125 178.063 731.314 180.091 730.165 181.781 728.677 183.268 727.19 184.755 725.365 185.904 723.134 186.716 720.971 187.527 718.47 188 715.698 188 712.25 188 709.141 187.392 706.369 186.175 703.597 184.958 701.231 183.335 699.203 181.24L701.231 177.927C701.434 177.657 701.637 177.454 701.975 177.251 702.245 177.049 702.583 176.981 702.921 176.981 703.259 176.981 703.597 177.116 704.003 177.387 704.408 177.657 704.882 177.995 705.355 178.333 705.896 178.739 706.437 179.144 707.113 179.617 707.789 180.091 708.532 180.496 709.343 180.902 710.155 181.307 711.169 181.645 712.25 181.848 713.332 182.119 714.549 182.254 715.901 182.254 717.591 182.254 719.078 182.051 720.43 181.578 721.782 181.105 722.864 180.496 723.81 179.617 724.689 178.806 725.433 177.792 725.906 176.643 726.379 175.494 726.649 174.209 726.649 172.79 726.649 171.235 726.244 169.95 725.568 168.936 724.824 167.922 723.945 167.111 722.728 166.435 721.579 165.759 720.227 165.218 718.672 164.745 717.185 164.272 715.63 163.799 714.076 163.258 712.521 162.785 710.966 162.176 709.479 161.568 707.991 160.892 706.639 160.081 705.422 159.067 704.273 158.052 703.327 156.7 702.583 155.213 701.84 153.658 701.502 151.698 701.502 149.467 701.502 147.642 701.84 145.817 702.583 144.127 703.327 142.437 704.408 140.882 705.76 139.597 707.113 138.245 708.87 137.231 710.831 136.42 712.859 135.609 715.157 135.203 717.794 135.203 720.7 135.203 723.404 135.676 725.771 136.555 728.204 137.502 730.3 138.786 732.125 140.544L730.435 143.653" fill="#458AC9" fill-rule="evenodd" transform="matrix(1.00346 0 0 1 35.3469 42)"/><path d="M616.729 0 614.769 0C591.243 0 571.774 17.306 568.259 39.8173 572.315 41.9806 576.912 44.1438 581.374 45.3607 581.644 26.5674 596.922 11.4247 615.783 11.4247L615.783 11.4247C630.723 11.4247 643.432 20.9565 648.164 34.2064 645.73 33.7332 643.297 33.4628 640.998 33.4628 640.998 33.4628 640.998 33.4628 640.998 33.4628 630.52 33.4628 620.853 39.0737 611.456 44.4818 603.074 49.3492 595.232 53.8785 587.999 53.8785 577.926 53.8785 567.312 48.1999 561.499 44.8199 556.834 42.1158 555.009 48.8083 552.508 53.7433 557.24 56.5825 562.783 59.557 568.664 61.923 572.991 83.4203 591.987 99.6447 614.769 99.6447L616.729 99.6447C640.119 99.6447 659.453 82.6091 663.104 60.3006 658.845 57.9346 654.451 55.8389 650.124 54.4869 649.719 73.1449 634.508 88.1525 615.715 88.1525L615.715 88.1525C600.91 88.1525 588.337 78.8234 583.469 65.7763 584.956 65.9115 586.444 66.0467 587.931 66.0467 587.931 66.0467 587.931 66.0467 587.931 66.0467 598.409 66.0467 608.076 60.4358 617.473 55.0277 625.855 50.1604 633.697 45.6311 640.931 45.6311 651.138 45.6311 665.876 53.7433 671.351 56.9205 676.151 59.6922 678.044 52.9996 680.139 47.9971 675.205 45.0227 669.256 41.7102 662.969 39.0061 659.318 16.8328 639.984 0 616.729 0Z" fill="#004F7D" transform="matrix(1.00346 0 0 1 35.3469 42)"/><path d="M552.44 53.9461C552.44 54.0137 552.372 54.0137 552.372 54.0813 552.44 54.0137 552.44 54.0137 552.44 53.9461Z" fill="#004F7D" transform="matrix(1.00346 0 0 1 35.3469 42)"/><path d="M680.275 47.9971C680.275 47.9971 680.275 47.9295 680.342 47.8619 680.275 47.9295 680.275 47.9295 680.275 47.9971Z" fill="#004F7D" transform="matrix(1.00346 0 0 1 35.3469 42)"/></g></svg>